<svg id="Layer_1" data-name="Layer 1" xmlns="http://www.w3.org/2000/svg" width="60" height="60" viewBox="0 0 60 60"><defs><style>.cls-1{fill:#fdcc00;}.cls-2{fill:#ffa800;}.cls-3{fill:#fff;}.cls-4{fill:none;stroke:#000;stroke-linecap:round;stroke-linejoin:round;stroke-width:2px;}</style></defs><title>Ecommerce_Icon</title><g id="Page-1"><g id="outline"><path id="Shape" class="cls-1" d="M43,8.89V2a1,1,0,0,0-1-1H20a1,1,0,0,0-1,1V8.89L17,10l1,1H44l1-1Z"/><path class="cls-2" d="M28,53a6,6,0,0,1-6,6,6.167,6.167,0,0,1-1.5-.19,5.994,5.994,0,0,1,0-11.61A5.713,5.713,0,0,1,22,47,6,6,0,0,1,28,53Z"/><path class="cls-2" d="M48,53a6,6,0,0,1-6,6,6.167,6.167,0,0,1-1.5-.19,5.994,5.994,0,0,1,0-11.61A5.713,5.713,0,0,1,42,47,6,6,0,0,1,48,53Z"/><path class="cls-1" d="M25,53a6.019,6.019,0,0,1-4.5,5.81,5.994,5.994,0,0,1,0-11.61A6,6,0,0,1,25,53Z"/><path class="cls-1" d="M45,53a6.019,6.019,0,0,1-4.5,5.81,5.994,5.994,0,0,1,0-11.61A6,6,0,0,1,45,53Z"/><path class="cls-2" d="M56.913,17.57l-6.02,20A2.016,2.016,0,0,1,48.963,39H9.853l-1.5-24h46.64a2,2,0,0,1,1.92,2.57Z"/><path class="cls-1" d="M53.913,17.57l-6.02,20A2.016,2.016,0,0,1,45.963,39H9.853l-1.5-24h43.64a2,2,0,0,1,1.92,2.57Z"/><path class="cls-2" d="M45,10V32a1,1,0,0,1-1,1H18a1,1,0,0,1-1-1V10Z"/><path class="cls-1" d="M42,10V32a.954.954,0,0,1-.893,1H17.9A.954.954,0,0,1,17,32V10Z"/><path class="cls-2" d="M26,5,19,8.89V2a.981.981,0,0,1,.34-.75Z"/><path class="cls-2" d="M43,2V8.89L36,5l6.66-3.75A.981.981,0,0,1,43,2Z"/><polygon class="cls-1" points="45.003 10 36.003 10 36.003 5 43.003 8.89 45.003 10"/><polygon class="cls-1" points="26.003 5 26.003 10 17.003 10 19.003 8.89 26.003 5"/><circle id="Oval" class="cls-2" cx="25.003" cy="16" r="2"/><circle class="cls-2" cx="37.003" cy="16" r="2"/><path class="cls-3" d="M20.5,47.2a5.994,5.994,0,0,0,0,11.61A6.167,6.167,0,0,0,22,59a5.98,5.98,0,0,0,1.488-.194A5.994,5.994,0,0,1,23.5,47.2h.006A5.982,5.982,0,0,0,22,47,5.713,5.713,0,0,0,20.5,47.2Z"/><polygon class="cls-3" points="12.853 39 11.353 15 8.353 15 9.853 39 12.853 39"/></g><g id="Outline-2"><polygon class="cls-3" points="8.79 38.062 7.979 25.088 7.352 15.062 9.348 14.938 9.975 24.963 10.786 37.938 8.79 38.062"/><path d="M9.476,33.01a1,1,0,0,0-.936,1.06l.25,3.992,2-.124-.25-3.993a1,1,0,0,0-1.064-.935Z"/><path d="M9.348,14.938l-2,.124.689,11.024a1,1,0,1,0,2-.125Z"/><path d="M8.291,30.078a1.049,1.049,0,0,0,.333.69l.158.111a.776.776,0,0,0,.185.079.658.658,0,0,0,.184.048,1.48,1.48,0,0,0,.2.008,1.057,1.057,0,0,0,.691-.334,1.043,1.043,0,0,0,.189-.342.97.97,0,0,0-.62-1.264.99.99,0,0,0-1.32,1Z"/><path class="cls-4" d="M9.788,38l.257,4.111A4.889,4.889,0,0,0,14.934,47H54"/><polyline class="cls-4" points="3.003 3 7.6 3 8.35 15"/><circle class="cls-4" cx="22.003" cy="53" r="6"/><path class="cls-4" d="M22,51a2,2,0,1,1-2,2"/><circle class="cls-4" cx="42.003" cy="53" r="6"/><path class="cls-4" d="M42,51a2,2,0,1,1-2,2"/><path class="cls-4" d="M45,15h9.991a2,2,0,0,1,1.92,2.57l-6.02,20A2.016,2.016,0,0,1,48.965,39H9.853"/><path class="cls-4" d="M17,15H8.353"/><path class="cls-4" d="M45,10V32a1,1,0,0,1-1,1H18a1,1,0,0,1-1-1V10Z"/><path class="cls-4" d="M19,8.89V2a1,1,0,0,1,1-1H42a1,1,0,0,1,1,1V8.89"/><polyline class="cls-4" points="45.003 10 43.003 8.89 36.003 5 42.663 1.25"/><polyline class="cls-4" points="19.343 1.25 26.003 5 19.003 8.89 17.003 10"/><path class="cls-4" d="M26,5v5"/><path class="cls-4" d="M36,5v5"/><path class="cls-4" d="M37,18c0,2.207-2.69,4-6,4s-6-1.793-6-4"/><circle class="cls-4" cx="25.003" cy="16" r="2"/><circle class="cls-4" cx="37.003" cy="16" r="2"/><path class="cls-4" d="M17,28H37"/><path class="cls-4" d="M41,28h4"/><path class="cls-4" d="M14,33H48"/></g></g></svg>