<svg id="Layer_1" data-name="Layer 1" xmlns="http://www.w3.org/2000/svg" width="110" height="110" viewBox="0 0 110 110"><defs><style>.cls-1{fill:#fff;}</style></defs><title>Enterprise_Icon</title><path class="cls-1" d="M51.286,44.484a11.526,11.526,0,0,0-9.119-9.416v-9.4a1.834,1.834,0,1,0-3.667,0V35.05a11.525,11.525,0,0,0-9.122,9.436A3.654,3.654,0,0,0,27.5,47.667V55H23.833V51.333a3.67,3.67,0,0,0-3.666-3.666H11a3.671,3.671,0,0,0-3.667,3.666V55H3.667A3.67,3.67,0,0,0,0,58.667v47.666A3.67,3.67,0,0,0,3.667,110H29.333a1.8,1.8,0,0,0,.755-.172,3.75,3.75,0,0,0,.938.172l18.693,0a3.592,3.592,0,0,0,3.448-3.665V47.667A3.656,3.656,0,0,0,51.286,44.484ZM40.268,38.5A7.835,7.835,0,0,1,47.425,44H33.239A7.778,7.778,0,0,1,40.268,38.5ZM11,51.333h9.17V55H11Zm16.5,55H3.667l0-47.666H27.5Zm3.667,0V47.667H49.5l.141,58.666Z"/><path class="cls-1" d="M9.167,25.667H30.25a8.25,8.25,0,0,0,.006-16.5,9.048,9.048,0,0,0-1.012.081A10.055,10.055,0,0,0,19.655.116,10.186,10.186,0,0,0,9.578,7.362c-.138-.007-.273-.028-.411-.029a9.167,9.167,0,0,0,0,18.334ZM9.161,11a5.226,5.226,0,0,1,1.387.19c.053.014.105,0,.158.011s.1.042.16.048a1.778,1.778,0,0,0,.206-.023,1.787,1.787,0,0,0,.367-.041,1.81,1.81,0,0,0,.3-.1,1.869,1.869,0,0,0,.343-.187,1.9,1.9,0,0,0,.226-.194,1.766,1.766,0,0,0,.246-.3,1.845,1.845,0,0,0,.154-.3,1.726,1.726,0,0,0,.1-.192c.015-.055,0-.108.011-.163s.042-.1.047-.153a6.417,6.417,0,0,1,12.805.492c0,.172-.038.343-.052.516a8.2,8.2,0,0,0-3.556,5.978,1.833,1.833,0,0,0-.024.258c0,.029-.016.053-.016.082a1.833,1.833,0,0,0,1.833,1.833h.018a1.827,1.827,0,0,0,.7-.141,1.549,1.549,0,0,0,.163-.1,1.8,1.8,0,0,0,.413-.28,1.428,1.428,0,0,0,.1-.139,1.8,1.8,0,0,0,.29-.434c.021-.048.024-.1.041-.154a1.749,1.749,0,0,0,.121-.454,4.526,4.526,0,0,1,2.489-3.712,4.664,4.664,0,0,1,2.062-.5,4.584,4.584,0,0,1,0,9.167H9.167a5.5,5.5,0,0,1-.006-11Z"/><path class="cls-1" d="M99.917,20.167A10.084,10.084,0,1,0,89.833,10.083,10.1,10.1,0,0,0,99.917,20.167Zm0-16.5A6.417,6.417,0,1,1,93.5,10.083,6.424,6.424,0,0,1,99.917,3.667Z"/><path class="cls-1" d="M36.667,51.333a1.833,1.833,0,0,0-1.834,1.834v3.666a1.834,1.834,0,1,0,3.667,0V53.167A1.833,1.833,0,0,0,36.667,51.333Z"/><path class="cls-1" d="M44,51.333a1.833,1.833,0,0,0-1.833,1.834v3.666a1.833,1.833,0,1,0,3.666,0V53.167A1.833,1.833,0,0,0,44,51.333Z"/><path class="cls-1" d="M36.667,62.333a1.833,1.833,0,0,0-1.834,1.834v3.666a1.834,1.834,0,1,0,3.667,0V64.167A1.833,1.833,0,0,0,36.667,62.333Z"/><path class="cls-1" d="M44,62.333a1.833,1.833,0,0,0-1.833,1.834v3.666a1.833,1.833,0,1,0,3.666,0V64.167A1.833,1.833,0,0,0,44,62.333Z"/><path class="cls-1" d="M36.667,73.333a1.833,1.833,0,0,0-1.834,1.834v3.666a1.834,1.834,0,1,0,3.667,0V75.167A1.833,1.833,0,0,0,36.667,73.333Z"/><path class="cls-1" d="M44,73.333a1.833,1.833,0,0,0-1.833,1.834v3.666a1.833,1.833,0,1,0,3.666,0V75.167A1.833,1.833,0,0,0,44,73.333Z"/><path class="cls-1" d="M36.667,84.333a1.833,1.833,0,0,0-1.834,1.834v3.666a1.834,1.834,0,1,0,3.667,0V86.167A1.833,1.833,0,0,0,36.667,84.333Z"/><path class="cls-1" d="M44,84.333a1.833,1.833,0,0,0-1.833,1.834v3.666a1.833,1.833,0,1,0,3.666,0V86.167A1.833,1.833,0,0,0,44,84.333Z"/><path class="cls-1" d="M36.667,95.333a1.833,1.833,0,0,0-1.834,1.834v3.666a1.834,1.834,0,1,0,3.667,0V97.167A1.833,1.833,0,0,0,36.667,95.333Z"/><path class="cls-1" d="M44,95.333a1.833,1.833,0,0,0-1.833,1.834v3.666a1.833,1.833,0,1,0,3.666,0V97.167A1.833,1.833,0,0,0,44,95.333Z"/><path class="cls-1" d="M66,69.667a1.833,1.833,0,0,0,1.833-1.834V64.167a1.833,1.833,0,1,0-3.666,0v3.666A1.833,1.833,0,0,0,66,69.667Z"/><path class="cls-1" d="M71.5,44a1.833,1.833,0,0,0-1.833,1.833V49.5a1.833,1.833,0,0,0,3.666,0V45.833A1.833,1.833,0,0,0,71.5,44Z"/><path class="cls-1" d="M71.5,18.333a1.833,1.833,0,0,0-1.833,1.834v3.666a1.833,1.833,0,1,0,3.666,0V20.167A1.833,1.833,0,0,0,71.5,18.333Z"/><path class="cls-1" d="M77,69.667a1.833,1.833,0,0,0,1.833-1.834V64.167a1.833,1.833,0,1,0-3.666,0v3.666A1.833,1.833,0,0,0,77,69.667Z"/><path class="cls-1" d="M66,80.667a1.833,1.833,0,0,0,1.833-1.834V75.167a1.833,1.833,0,1,0-3.666,0v3.666A1.833,1.833,0,0,0,66,80.667Z"/><path class="cls-1" d="M77,80.667a1.833,1.833,0,0,0,1.833-1.834V75.167a1.833,1.833,0,1,0-3.666,0v3.666A1.833,1.833,0,0,0,77,80.667Z"/><path class="cls-1" d="M66,91.667a1.833,1.833,0,0,0,1.833-1.834V86.167a1.833,1.833,0,1,0-3.666,0v3.666A1.833,1.833,0,0,0,66,91.667Z"/><path class="cls-1" d="M77,91.667a1.833,1.833,0,0,0,1.833-1.834V86.167a1.833,1.833,0,1,0-3.666,0v3.666A1.833,1.833,0,0,0,77,91.667Z"/><path class="cls-1" d="M91.667,78.833H93.5a1.833,1.833,0,0,0,0-3.666H91.667a1.833,1.833,0,1,0,0,3.666Z"/><path class="cls-1" d="M91.667,86.167H93.5a1.834,1.834,0,0,0,0-3.667H91.667a1.834,1.834,0,1,0,0,3.667Z"/><path class="cls-1" d="M91.667,93.5H93.5a1.834,1.834,0,0,0,0-3.667H91.667a1.834,1.834,0,1,0,0,3.667Z"/><path class="cls-1" d="M91.667,100.833H93.5a1.833,1.833,0,0,0,0-3.666H91.667a1.833,1.833,0,1,0,0,3.666Z"/><path class="cls-1" d="M14.667,77H9.357a1.834,1.834,0,0,0,0,3.667h5.31a1.834,1.834,0,0,0,0-3.667Z"/><path class="cls-1" d="M14.667,69.667H9.357a1.833,1.833,0,0,0,0,3.666h5.31a1.833,1.833,0,1,0,0-3.666Z"/><path class="cls-1" d="M14.667,62.333H9.357a1.834,1.834,0,0,0,0,3.667h5.31a1.834,1.834,0,0,0,0-3.667Z"/><path class="cls-1" d="M14.667,84.333H9.357a1.834,1.834,0,0,0,0,3.667h5.31a1.834,1.834,0,0,0,0-3.667Z"/><path class="cls-1" d="M14.667,91.667H9.357a1.833,1.833,0,0,0,0,3.666h5.31a1.833,1.833,0,1,0,0-3.666Z"/><path class="cls-1" d="M14.667,99H9.357a1.834,1.834,0,0,0,0,3.667h5.31a1.834,1.834,0,0,0,0-3.667Z"/><circle class="cls-1" cx="22" cy="64.166" r="1.833"/><circle class="cls-1" cx="71.5" cy="38.5" r="1.833"/><circle class="cls-1" cx="22" cy="71.5" r="1.833"/><circle class="cls-1" cx="22" cy="78.833" r="1.833"/><circle class="cls-1" cx="22" cy="86.166" r="1.833"/><circle class="cls-1" cx="22" cy="93.5" r="1.833"/><circle class="cls-1" cx="22" cy="100.833" r="1.833"/><path class="cls-1" d="M109.877,69.059c-.017-.048-.025-.1-.046-.143a1.807,1.807,0,0,0-.321-.5l-5.8-6.247A5.169,5.169,0,0,0,99.927,60.5H92.548A5.175,5.175,0,0,0,88.8,62.14l-2.633,2.847v-6.32A3.671,3.671,0,0,0,82.5,55V33a3.654,3.654,0,0,0-1.882-3.183,3.673,3.673,0,0,0,.049-.484V14.667a3.705,3.705,0,0,0-.076-.742,2.715,2.715,0,0,0,.643-.823,2.763,2.763,0,0,0-.34-2.911L74.615,2.4a3.659,3.659,0,0,0-2.8-1.367A4.038,4.038,0,0,0,68.977,2.31l-6.725,7.809a2.76,2.76,0,0,0-.419,2.94,2.705,2.705,0,0,0,.595.806,3.659,3.659,0,0,0-.095.8V29.333a3.673,3.673,0,0,0,.049.484A3.654,3.654,0,0,0,60.5,33V55a3.671,3.671,0,0,0-3.667,3.667v47.666A3.671,3.671,0,0,0,60.5,110h45.833A3.67,3.67,0,0,0,110,106.333V69.667c0-.037-.019-.067-.021-.1A1.821,1.821,0,0,0,109.877,69.059ZM91.484,64.638a1.482,1.482,0,0,1,1.071-.471h7.364a1.49,1.49,0,0,1,1.1.492l2.948,3.174H88.527ZM66,14.667H77V29.333H66ZM71.759,4.7v0L76.838,11h-10.5ZM64.164,33H78.833V55H64.167ZM60.5,58.667h22v47.666H77V99a3.671,3.671,0,0,0-3.667-3.667H69.667A3.671,3.671,0,0,0,66,99v7.333H60.5Zm9.169,47.666,0-7.333h3.669v7.333Zm36.667,0H86.167V71.5h20.166Z"/></svg>