<svg xmlns="http://www.w3.org/2000/svg" xmlns:xlink="http://www.w3.org/1999/xlink" width="368.035" height="365.354" viewBox="0 0 368.035 365.354"><defs><style>.cls-1{isolation:isolate;}.cls-2{fill:#e0e0e2;}.cls-3{fill:url(#Gradient_bez_nazwy_17);}.cls-4{fill:url(#Gradient_bez_nazwy_17-2);}.cls-5,.cls-6{fill:#aaaae8;mix-blend-mode:color-dodge;}.cls-5{opacity:0.35;}.cls-6{opacity:0.09;}.cls-17,.cls-7{fill:#eeedf3;}.cls-7{opacity:0.2;}.cls-8{fill:#ff3131;}.cls-9{fill:#ff7373;}.cls-10{fill:#010080;}.cls-11{fill:#f8b7b0;}.cls-12{fill:#e49f98;}.cls-13{fill:url(#Gradient_bez_nazwy_16);}.cls-14{fill:#4003a9;}.cls-15{fill:url(#Gradient_bez_nazwy_10);}.cls-16{fill:#eefaff;}.cls-18{fill:#c8c7d9;}.cls-19{fill:#3f3f3f;opacity:0.1;mix-blend-mode:multiply;}.cls-20{fill:url(#Gradient_bez_nazwy_21);}.cls-21{fill:#fff;}.cls-22{fill:#e2e2e2;}.cls-23{fill:#f8aa00;}.cls-24{fill:#fb3;}.cls-25{fill:#ed9e00;}.cls-26{fill:url(#Gradient_bez_nazwy_114);}.cls-27{fill:#ffb6ea;}.cls-28{fill:#ff3158;}.cls-29{fill:#ff7d43;}.cls-30{fill:url(#Gradient_bez_nazwy_114-2);}.cls-31{fill:url(#Gradient_bez_nazwy_114-3);}</style><linearGradient id="Gradient_bez_nazwy_17" x1="178.089" y1="62.884" x2="216.78" y2="358.877" gradientUnits="userSpaceOnUse"><stop offset="0" stop-color="aqua"/><stop offset="0.369" stop-color="#0071bc"/><stop offset="0.761" stop-color="#9e005d"/><stop offset="1" stop-color="#ed1e79"/></linearGradient><linearGradient id="Gradient_bez_nazwy_17-2" x1="381.755" y1="307.224" x2="1.288" y2="-42.291" xlink:href="#Gradient_bez_nazwy_17"/><linearGradient id="Gradient_bez_nazwy_16" x1="207.2" y1="227.018" x2="175.285" y2="130.984" gradientUnits="userSpaceOnUse"><stop offset="0" stop-color="#3301a0"/><stop offset="1" stop-color="#6a01a0"/></linearGradient><linearGradient id="Gradient_bez_nazwy_10" x1="152.892" y1="354.604" x2="157.244" y2="221.436" gradientUnits="userSpaceOnUse"><stop offset="0" stop-color="#f7631e"/><stop offset="1" stop-color="#febc66"/></linearGradient><linearGradient id="Gradient_bez_nazwy_21" x1="185.562" y1="122.879" x2="86.772" y2="-50.331" gradientUnits="userSpaceOnUse"><stop offset="0" stop-color="aqua"/><stop offset="1" stop-color="#9e005d"/></linearGradient><linearGradient id="Gradient_bez_nazwy_114" x1="136.438" y1="140.749" x2="62.163" y2="132.626" gradientUnits="userSpaceOnUse"><stop offset="0" stop-color="aqua"/><stop offset="0.693" stop-color="#9e005d"/><stop offset="1" stop-color="#ed1e79"/></linearGradient><linearGradient id="Gradient_bez_nazwy_114-2" x1="324.806" y1="106.925" x2="416.199" y2="-39.303" gradientTransform="translate(13.821 -45.131) rotate(7.713)" xlink:href="#Gradient_bez_nazwy_114"/><linearGradient id="Gradient_bez_nazwy_114-3" x1="41.774" y1="271.158" x2="208.892" y2="99.399" gradientTransform="translate(61.589 -18.101) rotate(15.664)" xlink:href="#Gradient_bez_nazwy_114"/></defs><title>Hero_Illustration</title><g class="cls-1"><g id="Layer_1" data-name="Layer 1"><ellipse class="cls-2" cx="150.146" cy="359.696" rx="44.843" ry="5.658"/><path class="cls-3" d="M286.148,94.03,177.8,53.8a6.326,6.326,0,0,0-8.115,3.735L96.514,254.624a6.309,6.309,0,0,0,3.717,8.108l108.345,40.226a6.307,6.307,0,0,0,8.108-3.717l73.175-197.085A6.324,6.324,0,0,0,286.148,94.03Z"/><path class="cls-4" d="M166.136,37.218c-7.531,3.14-36.55,15.236-52.743,46.519-3.444,6.653-19.638,37.937-7.7,65.578,15.79,36.573,63.954,27.695,86.057,62.111,19,29.594-20.369,58.71-3.421,93.977,8.848,18.41,29.229,33.776,48.09,35.193,58.868,4.42,164.6-122.409,121.6-221.883C326.724,46.305,226.8,11.929,166.136,37.218Z"/><path class="cls-5" d="M225.084,329.494c-1.688,0-3.31-.043-4.859-.12-30.571-1.506-54.487-11.922-67.351-29.33-13.792-18.664-10.788-38.477-7.6-59.452,2.834-18.69,5.764-38.016-3.944-56.981-8.638-16.874-25.16-20.091-42.653-23.5-17.876-3.479-36.36-7.077-48.646-25.192C37.055,115.8,34.073,87.366,43.09,68.789,56.353,41.466,102.041,19.714,156.779,14.66,227.848,8.1,290.034,30.936,323.126,75.753c52.787,71.494,28.261,185.672-28.845,229h0l-.526-.694.524.7C267.868,324.785,242.8,329.494,225.084,329.494Zm-44.533-314.2q-11.606,0-23.612,1.1c-54.153,5-99.277,26.361-112.282,53.155-8.768,18.062-5.841,45.747,6.811,64.4C63.351,151.467,81.474,155,99,158.407c17.921,3.488,34.848,6.783,43.872,24.412,9.962,19.463,6.989,39.071,4.114,58.033-3.125,20.609-6.078,40.074,7.286,58.159,12.546,16.978,36,27.145,66.032,28.624,17.525.879,44.409-2.646,72.92-24.269l.528.69-.525-.693c56.488-42.857,80.733-155.827,28.5-226.576C292.713,37.494,241,15.292,180.551,15.292Z"/><path class="cls-6" d="M221.2,195.022q-4.1,0-8.292-.23c-42.091-2.315-76.444-21.036-91.9-50.079-24.651-46.329-.447-110.9,36.661-131.273,18.785-10.313,35.04-10.031,45.373-7.976C220.761,8.983,233.824,17.13,239.826,28.4c6.431,12.078,2.965,23.386-.707,35.357-3.278,10.693-6.669,21.75-2.626,33.7,3.6,10.649,13,13.967,22.95,17.479,10.133,3.576,20.612,7.275,26.214,18.9,5.916,12.281,5.2,29.127-1.668,39.186C274.758,186.55,250.11,195.022,221.2,195.022ZM191.345,5.2c-9.232,0-20.663,2.094-33.255,9.006h0c-36.768,20.182-60.744,84.18-36.31,130.1,15.308,28.77,49.392,47.32,91.174,49.618,32.127,1.77,60.378-6.827,70.318-21.388,6.7-9.822,7.391-26.294,1.6-38.318-5.443-11.3-15.75-14.938-25.717-18.456C249,112.176,239.4,108.791,235.666,97.74c-4.131-12.218-.7-23.411,2.622-34.236,3.616-11.794,7.033-22.934.77-34.693-5.879-11.038-18.727-19.026-36.183-22.493A59.166,59.166,0,0,0,191.345,5.2Zm-33.464,8.625h0Z"/><polygon class="cls-7" points="259.897 84.278 247.921 92.321 143.124 162.666 126.517 173.825 149.356 112.27 165.981 101.129 203.6 75.87 215.576 67.827 259.897 84.278"/><polygon class="cls-7" points="283.764 93.139 271.77 101.181 130.817 195.794 130.817 195.811 114.209 206.952 122.252 185.279 122.252 185.262 138.877 174.121 138.877 174.103 256.155 95.384 268.149 87.342 283.764 93.139"/><rect class="cls-8" x="225.076" y="204.749" width="89.615" height="50.584" transform="translate(-32.827 45.319) rotate(-9.051)"/><polygon class="cls-9" points="269.883 230.041 310.154 198.015 221.655 212.112 269.883 230.041"/><path class="cls-10" d="M191.431,124.826c3.421-2.982,6.414-17.6-1.237-13.926s-1.823,14.029-1.823,14.029Z"/><path class="cls-11" d="M193.509,156.547a14.246,14.246,0,0,0,13.517-3.154c1.635-1.623-2.679-3.994-4.1-6a5.458,5.458,0,0,1-.556-3.734,43.359,43.359,0,0,1,2.011-7.852l-13.855-4.285s-.425,7.183-.759,9.845a4.041,4.041,0,0,1-.328,1.218c-.725,1.595-2.511,2.09-5.488,3.936C180.332,148.769,186.582,154.722,193.509,156.547Z"/><path class="cls-12" d="M189.771,141.365a4.324,4.324,0,0,1-.087.494c1.394,1.667,3.065,3,4.533,3.184,2.286.287,5.244-.5,8.33-2.551a54.318,54.318,0,0,1,1.838-6.687L190.53,131.52S190.106,138.7,189.771,141.365Z"/><path class="cls-11" d="M209.407,127.3c-1.553,6.8-2.434,10.076-5.8,12.518s-6.624,3.39-9.1,3.079c-3.095-.388-7.081-5.852-7.511-8.865a53.8,53.8,0,0,1,1.329-18.447c.981-3.758,6.28-7.8,11.144-7.191S213.2,110.693,209.407,127.3Z"/><path class="cls-11" d="M185.65,125.557c.244,2.581,1.538,4.57,2.89,4.442s2.25-2.324,2.006-4.905-1.538-4.57-2.89-4.442S185.406,122.976,185.65,125.557Z"/><path class="cls-13" d="M250.648,192.2l-31.968,8.346-8.517-24.12s-6.644,40.434-7.933,45.1c-1.247,4.535-2.436,4.817-4.437,4.466l-32.184-5.643c-2.21-.388-3.358-3.025-2.242-7.15.9-3.358,7.918-30.7,9.179-43.27a133.25,133.25,0,0,1-10.292,19.152l-30.316-11.559,3.348-9.29,21.132,5.8s7.145-14.716,15.061-23.42c2.376-2.613,9.155-5.981,13.242-6.659a23.308,23.308,0,0,1,3.11-.377c.14,3.8,3.584,6.442,6.4,6.936s8.5-.434,9.291-3.36a15.632,15.632,0,0,1,3.255,1.711c4.064,2.7,6.642,3.6,8.434,7.148,2.888,5.716,11.714,31.208,11.714,31.208l24.064-5.391Z"/><path class="cls-14" d="M178.711,346.988c.63,1.436,3.909,4.9,8.626,7.369s14.606,4.64,8.719,6.05-9.808,1.221-18.714-1.745c-3.741-1.08-3.384-1.257-7.4-1.09s-6.956,1.229-5.063-6.521S176.674,342.348,178.711,346.988Z"/><path class="cls-14" d="M109.741,314.48c-.313,1.536-4.366,5.053-8.455,8.466s-8.867,5.2-5.629,6.945c5.609,3.023,8.372.384,16.45-4.4,3.429-1.845,3.263-1.156,7-2.627,2.556-1.006,4.721-2.349,3.572-7.443C120.922,307.644,110.753,309.514,109.741,314.48Z"/><path class="cls-15" d="M201.948,224.293s-4.476,31.106-7.5,49.767c-.348,2.107-.661,4.039-.957,5.71-.418,2.437-.766,4.335-1.027,5.484-.453,2.054-1.289,5.988-2.3,10.862-.366,1.776-.749,3.656-1.167,5.641-3.325,16.259-7.642,38.054-7.851,40.856a45.55,45.55,0,0,0-.034,6.372.545.545,0,0,1-.784.522L175.9,347.47a.591.591,0,0,0-.418-.035c-1.428.54-9.679,3.6-10.88,5.014-1.323,1.549.522-3.83.975-9.609.348-4.3,5.518-30.221,8.843-46.5.418-2.054.8-3.952,1.149-5.64.679-3.308,1.184-5.8,1.427-6.964a80.376,80.376,0,0,0,.8-9.783c.087-1.88.157-3.9.226-5.988.331-10.933.383-23.623.4-26.043a.554.554,0,0,0-.418-.522l-7.207-1.915a.451.451,0,0,0-.366.035c-1.845.905-18.4,9.017-26.338,15.841A13.706,13.706,0,0,0,140.165,260a4.349,4.349,0,0,0-.192.557c-1.584,6.389-3.116,11.559-4.439,15.284-.47,1.358-.922,2.542-1.358,3.5-.208.47-.47,1.079-.748,1.793-2.925,7.068-9.435,24.493-10.584,27.87-.731,2.107-.035,3.6-.035,5.153,0,2.507-4.039,3.638-6.145,2.629-1.567-.749-4.718-2.873-6.563-2.507a.554.554,0,0,1-.7-.644c1.184-4.927,5.536-22.874,9.47-37.9.5-1.9.992-3.761,1.479-5.536,2.02-7.468,3.8-13.544,4.805-15.772a24.615,24.615,0,0,1,3.412-4.822c9.54-11.28,33.333-32.4,33.333-32.4s.857-2.59,2.287-2.378c3.119.462,3.36,1,19.149,4.161C200.384,222.39,202.439,220.662,201.948,224.293Z"/><path class="cls-10" d="M208.267,115.641c-9.415-1.094-16.025-2.526-19.223-6.866s-.256-4.826,2.12-3.329c0,0,1.57-4,5.222-1.485a6.028,6.028,0,0,1,8.308,1.814s6.456-1.928,7.022,3.108C211.716,108.883,216.574,116.606,208.267,115.641Z"/><path class="cls-10" d="M212.606,113.566c2.577,3.736,1.864,18.635-4.642,13.187s.892-12.927.892-12.927Z"/><path class="cls-11" d="M207.385,126.81c-1.272,2.26-1.344,4.631-.16,5.3s3.174-.625,4.445-2.884,1.344-4.631.161-5.3S208.657,124.551,207.385,126.81Z"/><path class="cls-10" d="M201.787,224.012,162.351,216.9a.448.448,0,0,1-.343-.589l1.388-3.936a.446.446,0,0,1,.5-.292l38.8,6.791a.449.449,0,0,1,.364.519l-.755,4.258A.447.447,0,0,1,201.787,224.012Z"/><path class="cls-16" d="M206.781,148.862a12.769,12.769,0,0,1-12,4.73,12.982,12.982,0,0,1-10.055-9.64,23.308,23.308,0,0,1,3.11-.377c.14,3.8,3.584,6.442,6.4,6.936s8.5-.434,9.291-3.36A15.632,15.632,0,0,1,206.781,148.862Z"/><path class="cls-10" d="M214.937,113.548a2.077,2.077,0,0,0-.919-2.792l-1.873,3.711A2.077,2.077,0,0,0,214.937,113.548Z"/><path class="cls-10" d="M192.608,113.892a6.559,6.559,0,0,0,4.233-8.253l-12.486,4.021A6.557,6.557,0,0,0,192.608,113.892Z"/><path class="cls-10" d="M197.885,115.221a4.368,4.368,0,0,0,.357-6.168l-6.526,5.811A4.369,4.369,0,0,0,197.885,115.221Z"/><path class="cls-10" d="M214.556,116.178a2.079,2.079,0,0,0,1.644-2.437l-4.081.793A2.079,2.079,0,0,0,214.556,116.178Z"/><path class="cls-17" d="M286.149,94.026l-2.385-.887-15.615-5.8L259.9,84.278,215.576,67.827,177.8,53.8a6.333,6.333,0,0,0-8.112,3.742L149.356,112.27l-22.839,61.555-4.265,11.437v.017l-8.043,21.673-17.7,47.664a6.614,6.614,0,0,0-.365,1.793,6.255,6.255,0,0,0,4.091,6.319l20.123,7.468,15.18,5.64L175.573,290.7l14.588,5.413,18.417,6.842a6.318,6.318,0,0,0,8.113-3.708l71.825-193.508,1.341-3.586A6.316,6.316,0,0,0,286.149,94.026Zm-10.306,12.291-1.532,4.108L212.443,277.107a3.429,3.429,0,0,1-4.4,2l-13.6-5.049-16.416-6.092-33.928-12.6L128.571,249.6l-12.377-4.6a3.381,3.381,0,0,1-2.211-3.063,3.168,3.168,0,0,1,.192-1.323l16.642-44.809v-.017l8.06-21.673V174.1l4.247-11.437,22.857-61.537,11.611-31.282a3.4,3.4,0,0,1,4.387-2L203.6,75.87l44.321,16.451,8.234,3.063,15.615,5.8,2.054.766A3.385,3.385,0,0,1,275.843,106.317Z"/><path class="cls-2" d="M174.424,296.343l14.57,5.414c.418-1.985.8-3.865,1.167-5.641L175.573,290.7C175.225,292.391,174.842,294.289,174.424,296.343Z"/><path class="cls-2" d="M118.875,275.732l14.553,5.4c.278-.714.54-1.323.748-1.793.436-.957.888-2.141,1.358-3.5l-15.18-5.64C119.867,271.971,119.38,273.834,118.875,275.732Z"/><path class="cls-18" d="M151.337,274.736h0a5.934,5.934,0,0,1-3.5-7.628h0a5.933,5.933,0,0,1,7.628-3.5h0a5.934,5.934,0,0,1,3.5,7.628h0A5.934,5.934,0,0,1,151.337,274.736Z"/><path class="cls-11" d="M126.975,172.582a9.539,9.539,0,0,0,5.144-.762c1.171-.613,2.288-4.181,2.654-6.736s-2.933-2.233-2.933-2.233a15.887,15.887,0,0,1,3.383-.8c2.1-.287,2.925-2.679-.11-2.638s-5.99,1.487-8.8,7.239c0,0-2.883,5.35.016,7.664Z"/><path class="cls-11" d="M264.881,177.3c.015-2.026-3.494-5.277-4.459-3.973s-3.629,5.992-3.171,8.282a12.374,12.374,0,0,0,1.615,4.02l-.666,1.794S264.813,186.087,264.881,177.3Z"/><path class="cls-19" d="M210.5,27.362,78.782,38.248a5.772,5.772,0,0,0-5.276,6.227l3.185,38.536a5.772,5.772,0,0,0,6.227,5.277L95.9,87.214l6.3-.52c1.242,1.353,4.411,4.788,5.723,6.03a2.856,2.856,0,0,0,4.173-.345c1.09-1.44,3.652-5.349,4.655-6.888l32.019-2.647L214.631,77.4a5.77,5.77,0,0,0,5.276-6.227l-3.185-38.536A5.77,5.77,0,0,0,210.5,27.362Z"/><rect class="cls-19" x="255.206" y="22.487" width="48.283" height="48.283" rx="3.241" transform="translate(199.856 318.457) rotate(-83.176)"/><path class="cls-19" d="M121.847,112.141a7.527,7.527,0,0,0-9.45-4.9L63.972,122.573a7.53,7.53,0,0,0-4.905,9.451l9.986,31.528a7.527,7.527,0,0,0,9.45,4.9l4.73-1.5s8.829,6.133,11.911,7.955a4.505,4.505,0,0,0,6.3-1.994c1.472-3.264,5.16-13.362,5.16-13.362l20.327-6.437a7.528,7.528,0,0,0,4.9-9.45Z"/><path class="cls-19" d="M284.348,126.425a2.314,2.314,0,0,0-4.221-.676l-4.374,7.111-2.454-10.3a3.877,3.877,0,0,0-4.671-2.874l-28.345,6.752a3.879,3.879,0,0,0-2.874,4.672l6.753,28.345a3.879,3.879,0,0,0,4.671,2.874l28.345-6.753a3.879,3.879,0,0,0,2.874-4.671l-2.454-10.3,7.111,4.374a2.313,2.313,0,0,0,3.463-2.506Z"/><path class="cls-19" d="M28.61,78.88a3.846,3.846,0,0,0-7.1.375L12.37,105.114a3.845,3.845,0,0,0,5.282,4.752l17.5-8.357a3.846,3.846,0,0,0,1.813-5.127Z"/><path class="cls-19" d="M37.808,8.317a11.277,11.277,0,1,0,14.157,7.344A11.277,11.277,0,0,0,37.808,8.317Z"/><path class="cls-19" d="M347.639,293.784a7.564,7.564,0,1,0,1.507,10.59A7.564,7.564,0,0,0,347.639,293.784Z"/><circle class="cls-19" cx="331.474" cy="88.881" r="14.277" transform="translate(45.484 278.577) rotate(-48.566)"/><path class="cls-19" d="M99.521,192.355a19.394,19.394,0,1,0,24.3,12.73A19.394,19.394,0,0,0,99.521,192.355Z"/><path class="cls-20" d="M212.791,17.959,71.492,29.638a6.191,6.191,0,0,0-5.66,6.68l3.417,41.341a6.191,6.191,0,0,0,6.68,5.66l13.93-1.151,6.76-.559c1.333,1.452,4.733,5.137,6.14,6.47a3.064,3.064,0,0,0,4.477-.37c1.169-1.546,3.918-5.739,4.994-7.39l34.349-2.839,70.649-5.84a6.191,6.191,0,0,0,5.661-6.68l-3.418-41.341A6.191,6.191,0,0,0,212.791,17.959Z"/><path class="cls-21" d="M100.251,55.556A6.806,6.806,0,0,0,102.1,50.3l-.277-3.353a7.026,7.026,0,0,0-7.19-6.55,6.837,6.837,0,0,0-6.461,7.391l.3,3.639a6.813,6.813,0,0,0,2.685,4.877,14.449,14.449,0,0,0-8.536,10.785A2.941,2.941,0,0,0,85.8,70.466l22.068-1.824a2.941,2.941,0,0,0,2.578-3.849A14.447,14.447,0,0,0,100.251,55.556Z"/><path class="cls-21" d="M157.26,35.2,129.1,37.528a4.189,4.189,0,0,0-3.829,4.519l1.144,13.836a4.188,4.188,0,0,0,4.519,3.828l2.75-.227s4.029,4.418,5.476,5.787a2.5,2.5,0,0,0,3.661-.3c1.2-1.588,4.451-6.608,4.451-6.608l11.82-.977a4.188,4.188,0,0,0,3.829-4.518l-1.144-13.837A4.186,4.186,0,0,0,157.26,35.2Z"/><path class="cls-22" d="M132.219,44.569a1.741,1.741,0,0,1-.141-3.476l22.831-1.887a1.741,1.741,0,1,1,.286,3.47l-22.831,1.887C132.316,44.567,132.267,44.569,132.219,44.569Z"/><path class="cls-22" d="M132.716,50.559a1.741,1.741,0,0,1-.141-3.476L155.4,45.2a1.741,1.741,0,1,1,.286,3.47l-22.83,1.887C132.813,50.557,132.763,50.559,132.716,50.559Z"/><path class="cls-22" d="M133.21,56.549a1.74,1.74,0,0,1-.141-3.475l10.294-.851a1.741,1.741,0,1,1,.286,3.47l-10.294.851C133.307,56.548,133.258,56.549,133.21,56.549Z"/><path class="cls-21" d="M210.086,54.441a12.675,12.675,0,0,0-3.115-7.34l-.246-2.975a10.234,10.234,0,0,0-9.244-9.34l-.073-.878a1.793,1.793,0,1,0-3.574.3l.073.878a10.232,10.232,0,0,0-7.586,10.731l.246,2.972,0,0a12.716,12.716,0,0,0-1.859,7.751l.106,1.292a1.2,1.2,0,0,0,1.291,1.093l5.048-.417a1.009,1.009,0,0,0,.476,1,10.249,10.249,0,0,0,12.111-1,1.009,1.009,0,0,0,.305-1.068l5.057-.418a1.2,1.2,0,0,0,1.093-1.29Z"/><path class="cls-8" d="M188.425,57.266a5.4,5.4,0,1,1-5.822-4.933A5.4,5.4,0,0,1,188.425,57.266Z"/><rect class="cls-23" x="260.756" y="12.73" width="51.797" height="51.797" rx="3.477" transform="translate(6.621 -33.787) rotate(6.824)"/><rect class="cls-24" x="265.563" y="17.537" width="42.183" height="42.183" rx="2.103" transform="translate(359.071 -241.405) rotate(96.824)"/><path class="cls-25" d="M287.642,42.054,283.008,45.7a1.963,1.963,0,0,1-2.756-.33h0a1.963,1.963,0,0,0-2.756-.33l-6.861,5.4a1.962,1.962,0,0,0,.98,3.491l.807.1,16.153,1.933,9.085,1.087a1.963,1.963,0,0,0,1.776-3.162L290.4,42.384A1.963,1.963,0,0,0,287.642,42.054Z"/><path class="cls-25" d="M279.322,34.268a3.458,3.458,0,1,1-3.023-3.844A3.459,3.459,0,0,1,279.322,34.268Z"/><path class="cls-26" d="M104.083,100.041,52.134,116.494a8.076,8.076,0,0,0-5.261,10.138l10.712,33.824a8.078,8.078,0,0,0,10.138,5.261L72.8,164.11s9.471,6.579,12.778,8.533a4.832,4.832,0,0,0,6.755-2.14c1.579-3.5,5.536-14.333,5.536-14.333l21.806-6.906a8.076,8.076,0,0,0,5.261-10.138L114.221,105.3A8.076,8.076,0,0,0,104.083,100.041Z"/><path class="cls-27" d="M104.232,117.589l-42.118,13.34a2.611,2.611,0,0,1-1.577-4.979l42.118-13.339a2.611,2.611,0,1,1,1.577,4.978Z"/><path class="cls-27" d="M108,129.47,65.877,142.81a2.611,2.611,0,0,1-1.577-4.979l42.118-13.339A2.611,2.611,0,1,1,108,129.47Z"/><path class="cls-27" d="M88.63,148.677l-18.99,6.015a2.611,2.611,0,0,1-1.576-4.979L87.053,143.7a2.611,2.611,0,1,1,1.577,4.978Z"/><path class="cls-28" d="M283.5,118.062l-4.694,7.628-2.631-11.048a4.161,4.161,0,0,0-5.012-3.083L240.756,118.8a4.161,4.161,0,0,0-3.082,5.012l7.244,30.408a4.16,4.16,0,0,0,5.011,3.083l30.408-7.244a4.161,4.161,0,0,0,3.083-5.012L280.788,134l7.628,4.693a2.482,2.482,0,0,0,3.715-2.689l-4.1-17.22A2.481,2.481,0,0,0,283.5,118.062Z"/><polyline class="cls-21" points="255.128 126.242 266.237 133.077 259.403 144.186"/><path class="cls-29" d="M26.633,92,17.668,73.227a4.125,4.125,0,0,0-7.612.4L.246,101.37a4.125,4.125,0,0,0,5.667,5.1L24.688,97.5A4.124,4.124,0,0,0,26.633,92Z"/><path class="cls-21" d="M20.86,88.924l-2.171-3.432.137-.388a.9.9,0,1,0-1.7-.6l-3.038,8.592a6.126,6.126,0,0,0-2.3-1.416c-2.316-.819-4.624-.263-5.156,1.242s.913,3.388,3.229,4.207c2.285.808,4.56.275,5.13-1.187.006-.015.015-.027.02-.042l2.123-6L18.4,91.9a1.068,1.068,0,0,0,1.91-.215l.65-1.838A1.069,1.069,0,0,0,20.86,88.924Z"/><path class="cls-8" d="M45.928,8.447A12.1,12.1,0,1,1,30.741.568,12.1,12.1,0,0,1,45.928,8.447Z"/><path class="cls-21" d="M39.1,6.277a4.316,4.316,0,0,0-6,1.743,4.316,4.316,0,0,0-5.909,2.031,4.4,4.4,0,0,0,2.043,5.687l6.053,3.139a1.69,1.69,0,0,0,2.279-.722l3.14-6.052A4.4,4.4,0,0,0,39.1,6.277Z"/><path class="cls-8" d="M356.269,309.868a8.114,8.114,0,1,1-1.617-11.36A8.114,8.114,0,0,1,356.269,309.868Z"/><path class="cls-21" d="M354.794,305.3a87.208,87.208,0,0,0-6.7-5.031,2.948,2.948,0,0,0-2.308,3.332l.645,4.527a1.134,1.134,0,0,0,1.282.963l4.527-.645A2.947,2.947,0,0,0,354.794,305.3Z"/><circle class="cls-30" cx="341.666" cy="79.949" r="15.317" transform="translate(-7.639 46.578) rotate(-7.713)"/><path class="cls-21" d="M347.243,72.021a1.687,1.687,0,0,0-2.364-.2,27.035,27.035,0,0,1-4.561,3.666l-1.452-.591a.237.237,0,0,0-.31.13l-3.118,7.653a.239.239,0,0,0,.131.31l1.087.443a4.137,4.137,0,0,0,2.553,3.36l.639.26,4.2,1.71.94.383a1.67,1.67,0,0,0,2.161-2.22l.676.275a1.668,1.668,0,0,0,2.086-2.363,1.669,1.669,0,0,0,.7-3.214l-.011,0a1.657,1.657,0,0,0,.928-.915,1.675,1.675,0,0,0-.918-2.18L344.7,76.12C346.15,74.928,348.3,73.219,347.243,72.021Z"/><rect class="cls-21" x="332.985" y="73.072" width="3.333" height="9.658" rx="0.604" transform="translate(54.12 -120.498) rotate(22.165)"/><circle class="cls-31" cx="96.59" cy="214.82" r="20.806" transform="translate(-54.414 34.058) rotate(-15.664)"/><path class="cls-21" d="M95.582,201.692a2.291,2.291,0,0,0-2.646,1.838,36.681,36.681,0,0,1-1.611,7.784l-2.033.635a.321.321,0,0,0-.212.4l3.346,10.715a.323.323,0,0,0,.405.212l1.522-.476a5.618,5.618,0,0,0,5.579,1.315l.895-.279L106.7,222l1.315-.411a2.268,2.268,0,0,0,.347-4.193l.946-.3a2.266,2.266,0,0,0,.145-4.28,2.268,2.268,0,0,0-2.043-3.976l-.017,0a2.262,2.262,0,0,0-2.664-3.252l-8.272,2.584C96.95,205.684,97.725,202.035,95.582,201.692Z"/><rect class="cls-21" x="85.205" y="212.177" width="4.527" height="13.119" rx="0.82" transform="translate(-61.234 36.024) rotate(-17.345)"/></g></g></svg>