<svg id="Layer_1" data-name="Layer 1" xmlns="http://www.w3.org/2000/svg" width="110" height="110" viewBox="0 0 110 110"><defs><style>.cls-1{fill:#fff;}</style></defs><title>Individual_Icon</title><path class="cls-1" d="M88.024,78.629,70.513,69.874a4.822,4.822,0,0,1-2.68-4.336v-6.2q.636-.774,1.322-1.744a41.982,41.982,0,0,0,5.412-10.631,7.269,7.269,0,0,0,4.266-6.632V33A7.3,7.3,0,0,0,77,28.188V18.435A16.431,16.431,0,0,0,73.163,6.472C69.4,2.177,63.288,0,55,0S40.6,2.177,36.835,6.472A16.436,16.436,0,0,0,33,18.435v9.753A7.3,7.3,0,0,0,31.167,33v7.333a7.3,7.3,0,0,0,2.745,5.7A38.531,38.531,0,0,0,40.333,59.3v6.066a4.844,4.844,0,0,1-2.526,4.256L21.453,78.545a16.524,16.524,0,0,0-8.62,14.518V99c0,8.7,27.583,11,42.167,11s42.167-2.3,42.167-11V93.421A16.452,16.452,0,0,0,88.024,78.629ZM93.5,99c0,2.489-13.589,7.333-38.5,7.333S16.5,101.489,16.5,99V93.063a12.858,12.858,0,0,1,6.708-11.3l16.355-8.921A8.511,8.511,0,0,0,44,65.368L44,58l-.423-.51a34.8,34.8,0,0,1-6.252-12.953l-.167-.725-.625-.405a3.661,3.661,0,0,1-1.7-3.076V33a3.613,3.613,0,0,1,1.229-2.7l.605-.547V18.333l-.016-.24a12.716,12.716,0,0,1,2.941-9.2C42.63,5.423,47.814,3.667,55,3.667c7.159,0,12.331,1.743,15.374,5.185a12.891,12.891,0,0,1,2.975,9.241L73.333,29.75l.605.547A3.613,3.613,0,0,1,75.167,33v7.333a3.642,3.642,0,0,1-2.606,3.481l-.913.281L71.355,45A38.533,38.533,0,0,1,66.161,55.48a24.57,24.57,0,0,1-1.538,1.976l-.456.52v7.562a8.469,8.469,0,0,0,4.706,7.616l17.511,8.755A12.8,12.8,0,0,1,93.5,93.421Z"/></svg>