<svg id="Layer_1" data-name="Layer 1" xmlns="http://www.w3.org/2000/svg" width="60" height="60" viewBox="0 0 60 60"><defs><style>.cls-1{fill:#ffa800;}.cls-2{fill:#fedd0a;}.cls-3{fill:#fc7308;}.cls-4{fill:#15a143;}.cls-5{fill:#1cd759;}.cls-6{fill:#fff;}</style></defs><title>Performance_Icon</title><g id="Page-1"><g id="Colour"><path id="Shape" class="cls-1" d="M57,14V51H3V14a2.006,2.006,0,0,1,2-2H55A2.006,2.006,0,0,1,57,14Z"/><path class="cls-2" d="M54,14V51H3V14a2.006,2.006,0,0,1,2-2H52A2.006,2.006,0,0,1,54,14Z"/><path class="cls-1" d="M53,17V50H7V17a1,1,0,0,1,1-1H52A1,1,0,0,1,53,17Z"/><path class="cls-2" d="M50,17V50H7V17a1,1,0,0,1,1-1H49A1,1,0,0,1,50,17Z"/><path class="cls-1" d="M59,51v4a4,4,0,0,1-4,4H5a4,4,0,0,1-4-4V51a1,1,0,0,1,1-1H58A1,1,0,0,1,59,51Z"/><path class="cls-2" d="M56,51v4a4,4,0,0,1-4,4H5a4,4,0,0,1-4-4V51a1,1,0,0,1,1-1H55A1,1,0,0,1,56,51Z"/><path class="cls-2" d="M36.764,54H23.236a2,2,0,0,1-1.789-1.106L20,50H40l-1.447,2.894A2,2,0,0,1,36.764,54Z"/><path class="cls-3" d="M21,34.995V45H13v-10a2.006,2.006,0,0,1,2-2h4A2.006,2.006,0,0,1,21,34.995Z"/><path class="cls-1" d="M18,34.995V45H13v-10a2.006,2.006,0,0,1,2-2h1A2.006,2.006,0,0,1,18,34.995Z"/><path class="cls-3" d="M34,26V45H26V26a2.006,2.006,0,0,1,2-2h4A2.006,2.006,0,0,1,34,26Z"/><path class="cls-1" d="M31,26V45H26V26a2.006,2.006,0,0,1,2-2h1A2.006,2.006,0,0,1,31,26Z"/><polygon class="cls-4" points="51 7.995 47 7.995 47 44.995 39 44.995 39 7.995 35 7.995 41.5 2.305 43 0.995 51 7.995"/><polygon class="cls-5" points="50 7.995 44 7.995 44 44.995 39 44.995 39 7.995 35 7.995 43 0.995 46 3.995 50 7.995"/></g><g id="Whites"><path class="cls-6" d="M4,55V51a1,1,0,0,1,1-1H6V14a2.006,2.006,0,0,1,2-2H5a2.006,2.006,0,0,0-2,2V50H2a1,1,0,0,0-1,1v4a4,4,0,0,0,4,4H8a4,4,0,0,1-4-4Z"/></g><g id="Outline"><polygon class="cls-6" points="4 13.995 4 26.995 4 49.995 2 49.995 2 26.995 2 13.995 4 13.995"/><path d="M3,23a1.055,1.055,0,0,0,.71-.29,1.014,1.014,0,0,0,0-1.42l-.15-.12a.758.758,0,0,0-.18-.09.647.647,0,0,0-.18-.06A1.489,1.489,0,0,0,3,21a1.05,1.05,0,0,0-.71.29,1.031,1.031,0,0,0,0,1.42,1.048,1.048,0,0,0,.33.21A1.01,1.01,0,0,0,3,23Z"/><path d="M58,49V14a3,3,0,0,0-3-3H48v-2h3a1,1,0,0,0,.659-1.753l-8-7a.917.917,0,0,0-.118-.067,1,1,0,0,0-.171-.1A.925.925,0,0,0,43.191.03a.74.74,0,0,0-.374,0,.949.949,0,0,0-.19.05,1.01,1.01,0,0,0-.166.1.883.883,0,0,0-.12.068l-8,7A1,1,0,0,0,35,8.995h3v2H5a3,3,0,0,0-3,3v4a1,1,0,0,0,2,0V14a1,1,0,0,1,1-1H38v2H8a2,2,0,0,0-2,2V49H4V26a1,1,0,0,0-2,0V49a2,2,0,0,0-2,2v4a5.006,5.006,0,0,0,5,5H55a5.006,5.006,0,0,0,5-5V51A2,2,0,0,0,58,49ZM55,13a1,1,0,0,1,1,1V49H54V17a2,2,0,0,0-2-2H48V13ZM43,2.324,48.338,7H47a1,1,0,0,0-1,1V44H40V8a1,1,0,0,0-1-1H37.662ZM8,17H38V44H35V26a3,3,0,0,0-3-3H28a3,3,0,0,0-3,3V44H22v-9a3,3,0,0,0-3-3H15a3,3,0,0,0-3,3v9H11a1,1,0,0,0,0,2H49a1,1,0,0,0,0-2H48V17h4V49H8ZM33,44H27V26a1,1,0,0,1,1-1h4a1,1,0,0,1,1,1ZM20,44H14v-9a1,1,0,0,1,1-1h4a1,1,0,0,1,1,1Zm18.382,7-.724,1.447a.994.994,0,0,1-.894.553H23.236a.994.994,0,0,1-.894-.553L21.618,51ZM55,58H5a3,3,0,0,1-3-3H13a1,1,0,1,0,0-2H2V51H19.382l1.171,2.342A2.983,2.983,0,0,0,23.236,55H36.764a2.983,2.983,0,0,0,2.683-1.658L40.618,51H58v2H47a1,1,0,0,0,0,2H58A3,3,0,0,1,55,58Z"/><path d="M18,53H17a1,1,0,0,0,0,2h1a1,1,0,1,0,0-2Z"/><path d="M43,53H42a1,1,0,0,0,0,2h1a1,1,0,0,0,0-2Z"/></g></g></svg>