<svg id="Layer_1" data-name="Layer 1" xmlns="http://www.w3.org/2000/svg" width="60" height="60" viewBox="0 0 60 60"><defs><style>.cls-1{fill:#ffb600;}.cls-2{fill:#ffe100;}.cls-3{fill:#fdcc00;}.cls-4{fill:#fff;}</style></defs><title>Service_Icon</title><g id="Page-1"><path id="Shape" class="cls-1" d="M45.5,55.96V59H1.5V55.76a8.011,8.011,0,0,1,4.18-7.04l8.92-4.87a3.631,3.631,0,0,0,1.9-3.2V38.34a1.029,1.029,0,0,0-.2-.6A21.9,21.9,0,0,1,12.5,30V16S11.408,7.76,22,7.05c.48-.03.98-.05,1.5-.05,12.19,0,11,9,11,9V30a21.936,21.936,0,0,1-3.8,7.74,1.029,1.029,0,0,0-.2.6v2.41a3.639,3.639,0,0,0,2,3.26l8.57,4.77A8.042,8.042,0,0,1,45.5,55.96Z"/><path class="cls-2" d="M42.5,55.96V59H1.5V55.76a8.011,8.011,0,0,1,4.18-7.04l8.92-4.87a3.631,3.631,0,0,0,1.9-3.2V38.34a1.029,1.029,0,0,0-.2-.6A21.9,21.9,0,0,1,12.5,30V16S11.408,7.76,22,7.05c10.59.71,9.5,8.95,9.5,8.95V30a21.936,21.936,0,0,1-3.8,7.74,1.029,1.029,0,0,0-.2.6v2.41a3.639,3.639,0,0,0,2,3.26l8.57,4.77A8.042,8.042,0,0,1,42.5,55.96Z"/><path class="cls-1" d="M12.5,17V27h-4a2.005,2.005,0,0,1-2-2V19a2.005,2.005,0,0,1,2-2Z"/><path class="cls-1" d="M38.5,27h-4V17h4a2,2,0,0,1,2,2v6A2,2,0,0,1,38.5,27Z"/><path id="Rectangle-path" class="cls-3" d="M22.5,31h3a2,2,0,0,1,2,2h0a2,2,0,0,1-2,2h-3a2,2,0,0,1-2-2h0A2,2,0,0,1,22.5,31Z"/><path class="cls-2" d="M54.5,28.11V15.89a1.016,1.016,0,0,1,.465-.839A8,8,0,0,0,53.5,1V7a2.007,2.007,0,0,1-2,2h-2a2.005,2.005,0,0,1-2-2V1a8,8,0,0,0-1.465,14.051,1.021,1.021,0,0,1,.465.839V28.11a1.019,1.019,0,0,1-.465.839A8,8,0,0,0,47.5,43V37a2.005,2.005,0,0,1,2-2h2a2.007,2.007,0,0,1,2,2v6a8,8,0,0,0,1.465-14.051A1.015,1.015,0,0,1,54.5,28.11Z"/><path class="cls-1" d="M58.5,35.58a8.008,8.008,0,0,1-5,7.42V40.86a7.982,7.982,0,0,0-1.53-11.91,1.006,1.006,0,0,1-.47-.84V15.89a1.008,1.008,0,0,1,.47-.84A7.982,7.982,0,0,0,53.5,3.14V1a8,8,0,0,1,1.47,14.05,1.008,1.008,0,0,0-.47.84V28.11a1.006,1.006,0,0,0,.47.84A7.99,7.99,0,0,1,58.5,35.58Z"/><path class="cls-4" d="M4.5,55.76a8.011,8.011,0,0,1,4.18-7.04l8.92-4.87a3.631,3.631,0,0,0,1.9-3.2V38.34a1.029,1.029,0,0,0-.2-.6A21.9,21.9,0,0,1,15.5,30V27h-3v3a21.9,21.9,0,0,0,3.8,7.74,1.029,1.029,0,0,1,.2.6v2.31a3.631,3.631,0,0,1-1.9,3.2l-8.92,4.87A8.011,8.011,0,0,0,1.5,55.76V59h3Z"/><path class="cls-4" d="M24.969,7.053C24.5,7.022,24.015,7,23.5,7s-1.02.02-1.5.05C11.408,7.76,12.5,16,12.5,16v1h3V16S14.411,7.776,24.969,7.053Z"/><path class="cls-4" d="M42.5,8.42a7.978,7.978,0,0,0,3.535,6.631,1.021,1.021,0,0,1,.465.839V28.11a1.019,1.019,0,0,1-.465.839A8,8,0,0,0,47.5,43V40.852a7.971,7.971,0,0,1,1.535-11.9,1.02,1.02,0,0,0,.465-.842V15.89a1.021,1.021,0,0,0-.465-.839A7.97,7.97,0,0,1,47.5,3.148V1A8.008,8.008,0,0,0,42.5,8.42Z"/><rect class="cls-4" x="12.498" y="17" width="3" height="10"/><path d="M12.5,28h-4a3,3,0,0,1-3-3V19a3,3,0,0,1,3-3h4a1,1,0,0,1,1,1V27A1,1,0,0,1,12.5,28Zm-4-10a1,1,0,0,0-1,1v6a1,1,0,0,0,1,1h3V18Z"/><path d="M38.5,28h-4a1,1,0,0,1-1-1V17a1,1,0,0,1,1-1h4a3,3,0,0,1,3,3v6A3,3,0,0,1,38.5,28Zm-3-2h3a1,1,0,0,0,1-1V19a1,1,0,0,0-1-1h-3Z"/><polygon class="cls-4" points="1.498 58 14.498 58 45.498 58 45.498 60 14.498 60 1.498 60 1.498 58"/><path d="M6.5,59a1,1,0,0,0-1-1h-4v2h4A1,1,0,0,0,6.5,59Z"/><path d="M45.5,60V58h-32a1,1,0,0,0,0,2Z"/><path d="M9.5,58a1.053,1.053,0,0,0-.71.29l-.12.15a.758.758,0,0,0-.09.18.647.647,0,0,0-.06.18,1.489,1.489,0,0,0-.02.2,1.05,1.05,0,0,0,.29.71,1,1,0,0,0,.33.21,1.02,1.02,0,0,0,1.09-.21,1.037,1.037,0,0,0,.21-.33A1.01,1.01,0,0,0,10.5,59a.99.99,0,0,0-1-1Z"/><path d="M45.5,60a1,1,0,0,1-1-1V55.96a6.994,6.994,0,0,0-3.878-6.286l-8.608-4.79A4.606,4.606,0,0,1,29.5,40.75V38.345a1.966,1.966,0,0,1,.4-1.207A21.14,21.14,0,0,0,33.5,29.885V16a.961.961,0,0,1,.009-.131,7.038,7.038,0,0,0-1.621-5.04C30.226,8.952,27.4,8,23.5,8s-6.749.959-8.4,2.849a6.936,6.936,0,0,0-1.6,5.02.954.954,0,0,1,0,.131V29.885a21.116,21.116,0,0,0,3.6,7.253,1.976,1.976,0,0,1,.4,1.207v2.3a4.625,4.625,0,0,1-2.426,4.08L6.157,49.6A7,7,0,0,0,2.5,55.76V59a1,1,0,0,1-2,0V55.76a9,9,0,0,1,4.7-7.919l8.918-4.869A2.626,2.626,0,0,0,15.5,40.65v-2.3a23.121,23.121,0,0,1-3.975-8.121A.98.98,0,0,1,11.5,30V16.056a8.951,8.951,0,0,1,2.091-6.525C15.642,7.188,18.976,6,23.5,6s7.856,1.188,9.909,3.531A8.96,8.96,0,0,1,35.5,16.056V30a1.046,1.046,0,0,1-.025.224A23.148,23.148,0,0,1,31.5,38.351v2.4a2.635,2.635,0,0,0,1.45,2.367l8.606,4.789A8.968,8.968,0,0,1,46.5,55.96V59A1,1,0,0,1,45.5,60Z"/><path d="M38.5,18a1,1,0,0,1-1-1V16a14,14,0,1,0-28,0v1a1,1,0,0,1-2,0V16a16,16,0,1,1,32,0v1a1,1,0,0,1-1,1Z"/><path d="M20.5,34h-9a4,4,0,0,1-4-4V27a1,1,0,0,1,2,0v3a2,2,0,0,0,2,2h9a1,1,0,1,1,0,2Z"/><path d="M25.5,36h-3a3,3,0,0,1,0-6h3a3,3,0,1,1,0,6Zm-3-4a1,1,0,0,0,0,2h3a1,1,0,1,0,0-2Z"/><path d="M53.5,44a1,1,0,0,1-1-1V37a1,1,0,0,0-1-1h-2a1,1,0,0,0-1,1v6a1,1,0,0,1-1.376.927A9,9,0,0,1,45.474,28.12L45.5,15.891A8.992,8.992,0,0,1,47.122.073,1,1,0,0,1,48.5,1V7a1,1,0,0,0,1,1h2a1,1,0,0,0,1-1V1A1,1,0,0,1,53.874.073,9,9,0,0,1,55.522,15.88L55.5,28.1a9,9,0,0,1-1.624,15.831A.991.991,0,0,1,53.5,44Zm-4-10h2a3,3,0,0,1,3,3v4.329A7,7,0,0,0,54.4,29.778a2.019,2.019,0,0,1-.906-1.669V15.891a2.02,2.02,0,0,1,.906-1.669A7,7,0,0,0,54.5,2.671V7a3,3,0,0,1-3,3h-2a3,3,0,0,1-3-3V2.671a7,7,0,0,0,.094,11.551,2.022,2.022,0,0,1,.906,1.669V28.109a2.021,2.021,0,0,1-.906,1.669A7,7,0,0,0,46.5,41.329V37A3,3,0,0,1,49.5,34Z"/></g></svg>