<svg id="Layer_1" data-name="Layer 1" xmlns="http://www.w3.org/2000/svg" width="110" height="110" viewBox="0 0 110 110"><defs><style>.cls-1{fill:#fff;}</style></defs><title>Team_Icon</title><path class="cls-1" d="M103.719,81.494,86.167,70.99V66.251a25.962,25.962,0,0,0,4.587-9.658,4.188,4.188,0,0,1,1.129-2.15,7.756,7.756,0,0,0,2.277-5.511V43.3a7.7,7.7,0,0,0-.817-3.489l-.325-.65a4.269,4.269,0,0,1-.435-1.849V29.187a14.541,14.541,0,0,0-14.52-14.52H75.27A16.5,16.5,0,0,0,60.511,5.5h-11a16.5,16.5,0,0,0-14.759,9.167H31.936a14.539,14.539,0,0,0-14.519,14.52V37.3a4.262,4.262,0,0,1-.432,1.849l-.326.654a7.7,7.7,0,0,0-.82,3.484v5.645a7.747,7.747,0,0,0,2.271,5.505,4.305,4.305,0,0,1,1.156,2.247,25.9,25.9,0,0,0,4.567,9.569V70.99L6.281,81.5A12.993,12.993,0,0,0,0,92.583v10.084A1.833,1.833,0,0,0,1.833,104.5H108.167A1.833,1.833,0,0,0,110,102.667V92.583A13,13,0,0,0,103.719,81.494ZM86.778,75.629l-3.186,3.186L79.65,76.448l4.277-2.566c.081.057.148.132.234.182Zm6.722,25.2H65.492l12.172-21.3,10.493,6.3a11.063,11.063,0,0,1,5.343,9.43ZM42.183,73.622c.037-.022.064-.055.1-.078l9.506,4.074-4.448,4.449-10.072-5.5Zm25.53-.076c.027.016.047.042.075.058l4.943,2.967-10.072,5.5-4.448-4.449ZM54.084,86.167,51.663,82.93,55,79.592l3.337,3.337-2.422,3.238Zm6.872-.618.081.081a1.834,1.834,0,0,0,2.175.313l9.542-5.207L62.679,98.366,58.9,88.294Zm-14.168.394a1.834,1.834,0,0,0,2.175-.313l.08-.081L51.1,88.294,47.321,98.366,37.247,80.736Zm7.65,3.89h1.124l4.125,11H50.313Zm23.625-71.5A10.872,10.872,0,0,1,88.917,29.187v8.128a7.958,7.958,0,0,0,.816,3.471l.333.665a4.037,4.037,0,0,1,.427,1.835v5.648a4.113,4.113,0,0,1-1.214,2.927,7.757,7.757,0,0,0-2.106,3.948,22.449,22.449,0,0,1-4.066,8.413,3.553,3.553,0,0,0-.607,1.961v4.279L76.088,74.31l-6.421-3.856-.029-5.65a28.932,28.932,0,0,0,5.248-11.188,5.158,5.158,0,0,1,1.388-2.632,8.778,8.778,0,0,0,2.581-6.171V38.291a8.764,8.764,0,0,0-.927-3.9l-.379-.757a5.089,5.089,0,0,1-.538-2.261V22a16.483,16.483,0,0,0-.425-3.667ZM49.511,9.167h11A12.848,12.848,0,0,1,73.344,22v9.376a8.783,8.783,0,0,0,.927,3.9l.379.759a5.061,5.061,0,0,1,.538,2.259v6.513a5.1,5.1,0,0,1-1.507,3.587A8.745,8.745,0,0,0,71.3,52.852a25.307,25.307,0,0,1-4.6,9.762,3.642,3.642,0,0,0-.7,2.14v5.538L55,75.006,44,70.292V64.741a3.683,3.683,0,0,0-.725-2.164,25.186,25.186,0,0,1-4.558-9.661,8.831,8.831,0,0,0-2.405-4.53,5.089,5.089,0,0,1-1.479-3.573V38.3a5.07,5.07,0,0,1,.54-2.267l.376-.754a8.768,8.768,0,0,0,.928-3.9V22A12.848,12.848,0,0,1,49.511,9.167ZM22.846,55.9a7.874,7.874,0,0,0-2.132-4.043,4.1,4.1,0,0,1-1.208-2.922V43.277a4.033,4.033,0,0,1,.432-1.832l.333-.669a7.977,7.977,0,0,0,.812-3.468V29.187A10.871,10.871,0,0,1,31.937,18.333h1.5A16.425,16.425,0,0,0,33.011,22v9.369a5.083,5.083,0,0,1-.54,2.267l-.376.752a8.763,8.763,0,0,0-.928,3.906v6.519a8.774,8.774,0,0,0,2.546,6.16,5.213,5.213,0,0,1,1.418,2.708,28.724,28.724,0,0,0,5.2,11.073l-.009,5.706-6.412,3.85L27.5,70.462v-4.3a3.6,3.6,0,0,0-.674-2.027A22.2,22.2,0,0,1,22.846,55.9Zm2.968,18.181c.095-.055.168-.135.256-.2l4.28,2.568-3.942,2.367-3.186-3.186ZM3.667,92.583a9.313,9.313,0,0,1,4.5-7.942l11.813-7.07,3.19,3.189-3.211,1.928A14.741,14.741,0,0,0,12.833,95.26v5.573H3.667ZM16.5,95.26a11.058,11.058,0,0,1,5.343-9.428l10.493-6.3,12.172,21.3H16.5Zm89.833,5.573H97.167V95.258a14.745,14.745,0,0,0-7.124-12.57L86.832,80.76l3.189-3.189,11.812,7.068a9.318,9.318,0,0,1,4.5,7.944Z"/></svg>